<svg data-name="Layer 1" xmlns="http://www.w3.org/2000/svg" width="798.627197265625" height="689.2225952148438" xmlns:xlink="http://www.w3.org/1999/xlink" style=""><rect id="backgroundrect" width="100%" height="100%" x="0" y="0" fill="none" stroke="none"/><title>dev_productivity</title><g class="currentLayer" style=""><title>Layer 1</title><circle cx="435.9215393066406" cy="118.40512084960938" r="73.53607177734375" fill="#ecabab" id="svg_1" class="" fill-opacity="1" opacity="1"/><path d="M381.03587341308594,155.17314910888672 s13.854599952697754,104.44258880615234 -7.460159778594971,116.16564178466797 s126.8230972290039,12.788880348205566 126.8230972290039,12.788880348205566 S467.3608856201172,193.53978729248047 482.2811737060547,165.83049774169922 z" fill="#ecabab" id="svg_2" class="" fill-opacity="1"/><path d="M608.5702362060547,284.65599822998047 l-12.319999694824219,56.099998474121094 l-26.049999237060547,118.69000244140625 l-0.7799999713897705,6.5 l-8.989999771118164,75.25 l-5.980000019073486,49.9900016784668 l-4.010000228881836,33.58000183105469 c-24.3799991607666,12.529999732971191 -42.04999923706055,21.18000030517578 -42.04999923706055,21.18000030517578 s-1.5199999809265137,-7.619999885559082 -3.9700000286102295,-17.3700008392334 c-17.110000610351562,5.130000114440918 -48.77000045776367,13.640000343322754 -75.5999984741211,15.34000015258789 c9.770000457763672,10.890000343322754 14.260000228881836,21.1200008392334 8.170000076293945,28.670000076293945 c-18.3799991607666,22.760000228881836 -94.26000213623047,-24.920000076293945 -120.80000305175781,-42.70000076293945 a71.84075927734375,71.84075927734375 0 0 0 -0.699999988079071,12.859999656677246 l-20.309999465942383,-15.619999885559082 l2.009999990463257,-35.939998626708984 l3.390000104904175,-60.810001373291016 l4.260000228881836,-76.26000213623047 a80.06413269042969,80.06413269042969 0 0 1 -3.369999885559082,-10.029999732971191 c-6.21999979019165,-22.1200008392334 -13.770000457763672,-66.29000091552734 -19.559999465942383,-103.33000183105469 c-4.659999847412109,-29.809999465942383 -8.15999984741211,-55 -8.899999618530273,-60.36000061035156 c-0.10000000149011612,-0.699999988079071 -0.15000000596046448,-1.059999942779541 -0.15000000596046448,-1.059999942779541 l112.43000030517578,-49.68000030517578 c7.989999771118164,18.530000686645508 45.300048828125,24.100000381469727 45.300048828125,24.100000381469727 c30.90999984741211,-2.130000114440918 55.13999938964844,-18.43000030517578 55.13999938964844,-18.43000030517578 z" fill="#022b3a" id="svg_3" class="" opacity="1" fill-opacity="1"/><path d="M516.9202117919922,624.6360702514648 s-4.760000228881836,1.6299999952316284 -12.5,3.940000057220459 c-17.110000610351562,5.130000114440918 -48.77000045776367,13.640000343322754 -75.5999984741211,15.34000015258789 c-23.100000381469727,1.4800000190734863 -42.619998931884766,-2.0799999237060547 -46.189998626708984,-17.149999618530273 c-1.5299999713897705,-6.480000019073486 0.6399999856948853,-11.8100004196167 5.369999885559082,-16.190000534057617 c14.119999885559082,-13.09000015258789 51,-17.780000686645508 80.25,-19.389999389648438 c8.260000228881836,-0.44999998807907104 15.899999618530273,-0.6600000262260437 22.260000228881836,-0.7400000095367432 c10.800000190734863,-0.14000000059604645 17.8799991607666,0.07999999821186066 17.8799991607666,0.07999999821186066 l0.17000000178813934,0.6600000262260437 z" fill="#a0616a" id="svg_4"/><path d="M374.74632263183594,48.846778869628906 L360.9968719482422,43.34229278564453 s28.748779296875,-31.650789260864258 68.74742126464844,-28.89842987060547 l-11.249859809875488,-12.385210037231445 s27.498889923095703,-11.008859634399414 52.497859954833984,17.88956069946289 c13.14148998260498,15.191229820251465 28.346309661865234,33.047821044921875 37.82490921020508,53.16299819946289 h14.724720001220703 l-6.145540237426758,13.531789779663086 l21.50942039489746,13.531800270080566 l-22.07731056213379,-2.4305899143218994 a75.61672973632812,75.61672973632812 0 0 1 0.5990999937057495,22.44499969482422 A29.040719985961914,29.040719985961914 0 0 1 506.79319763183594,139.18709564208984 h0 s-17.051830291748047,-35.29561996459961 -17.051830291748047,-40.80012893676758 V112.14818572998047 s-13.74944019317627,-12.385049819946289 -13.74944019317627,-20.641719818115234 L468.49229431152344,101.13928985595703 l-3.749809980392456,-15.137410163879395 l-46.24800109863281,15.137410163879395 l7.499619960784912,-12.385000228881836 l-28.748779296875,4.128330230712891 l11.249859809875488,-15.137410163879395 s-32.49858856201172,17.88956069946289 -33.748809814453125,33.027000427246094 c-1.2497899532318115,15.137200355529785 -10.762269973754883,29.480680465698242 -10.762269973754883,29.480680465698242 S338.4978485107422,69.48848724365234 374.74632263183594,48.846778869628906 z" fill="#2f2e41" id="svg_5" class=""/><path d="M688.5002288818359,542.5660629272461 c-7.489999771118164,8.119999885559082 -26.049999237060547,20.350000381469727 -48.54999923706055,33.59000015258789 c-8.369999885559082,4.920000076293945 -17.280000686645508,9.989999771118164 -26.3700008392334,15.029999732971191 c-21.690000534057617,12.029999732971191 -44.400001525878906,23.950000762939453 -63.13999938964844,33.58000183105469 c-24.3799991607666,12.529999732971191 -42.04999923706055,21.18000030517578 -42.04999923706055,21.18000030517578 s-1.5199999809265137,-7.619999885559082 -3.9700000286102295,-17.3700008392334 c-3.2799999713897705,-13.050000190734863 -8.220000267028809,-29.920000076293945 -13.369999885559082,-37.38999938964844 c-0.18000000715255737,-0.25999999046325684 -0.36000001430511475,-0.5 -0.5400000214576721,-0.7400000095367432 c-1.5,-1.9700000286102295 -3.009999990463257,-3.119999885559082 -4.5,-3.119999885559082 l74.41999816894531,-46.130001068115234 l32.15999984741211,-19.940000534057617 l-23.170000076293945,-55.310001373291016 l-29.059999465942383,-69.37999725341797 l17.540000915527344,-55.810001373291016 l17.6299991607666,-56.099998474121094 h33.040000915527344 s10.9399995803833,23.8799991607666 24.93000030517578,57.180049896240234 c2.0899999141693115,4.980000019073486 4.25,10.170000076293945 6.449999809265137,15.529999732971191 C668.7302093505859,427.36605072021484 704.6102142333984,525.1160507202148 688.5002288818359,542.5660629272461 z" fill="#022b3a" id="svg_6" class="" fill-opacity="1"/><path d="M436.99021911621094,672.5860824584961 c-18.3799991607666,22.760000228881836 -94.26000213623047,-24.920000076293945 -120.80000305175781,-42.70000076293945 c-5.78000020980835,-3.869999885559082 -9.220000267028809,-6.320000171661377 -9.220000267028809,-6.320000171661377 l24.280000686645508,-32.380001068115234 l7.690000057220459,-10.25 s6.880000114440918,3.6500000953674316 17.049999237060547,9.59000015258789 c0.3700000047683716,0.2199999988079071 0.7400000095367432,0.4399999976158142 1.1200000047683716,0.6600000262260437 c8.770000457763672,5.150000095367432 19.780000686645508,11.880000114440918 30.889999389648438,19.389999389648438 c15.329999923706055,10.369999885559082 30.829999923706055,22.200000762939453 40.81999969482422,33.34000015258789 C438.5902557373047,654.8060531616211 443.0802459716797,665.0360336303711 436.99021911621094,672.5860824584961 z" fill="#a0616a" id="svg_7"/><path d="M355.99021911621094,590.5260848999023 a47.78152084350586,47.78152084350586 0 0 0 -8.100000381469727,0.6600000262260437 c-22.989999771118164,3.950000047683716 -29.770000457763672,24.760000228881836 -31.700000762939453,38.70000076293945 a71.84075927734375,71.84075927734375 0 0 0 -0.699999988079071,12.859999656677246 l-20.309999465942383,-15.619999885559082 l-7.400000095367432,-5.690000057220459 c-17.809999465942383,-6.210000038146973 -33.68000030517578,-17.239999771118164 -47.439998626708984,-30.25 a238.48245239257812,238.48245239257812 0 0 1 -31.950000762939453,-37.88999938964844 a334.1502685546875,334.1502685546875 0 0 1 -24.719999313354492,-42.400001525878906 a31.183679580688477,31.183679580688477 0 0 1 -0.4300000071525574,-26.450000762939453 l25.149999618530273,-56.04999923706055 l36.7599983215332,-81.91999816894531 q0.40494000911712646,-2.924920082092285 0.8899499773979187,-5.71999979019165 c7.289999961853027,-41.79999923706055 26.81999969482422,-60.36000061035156 26.81999969482422,-60.36000061035156 h14.920000076293945 l9.979999542236328,60.36000061035156 l12.399999618530273,74.98999786376953 l-8.6899995803833,28.34000015258789 l-20.079999923706055,65.449951171875 l19.190000534057617,20.84000015258789 z" fill="#022b3a" id="svg_8" class="" fill-opacity="1"/><path d="M372.87657165527344,415.80587005615234 l12.754890441894531,14.880809783935547 c4.738790035247803,-0.9035099744796753 9.687419891357422,-1.9652700424194336 14.784339904785156,-3.1576600074768066 l-3.663439989089966,-11.723150253295898 l8.957500457763672,10.450440406799316 c53.997398376464844,-13.280790328979492 120.92677307128906,-39.10137939453125 120.92677307128906,-39.10137939453125 s-72.25714874267578,5.298210144042969 -126.20825958251953,-6.488609790802002 c-23.870750427246094,-5.215089797973633 -48.430728912353516,6.618110179901123 -58.22631072998047,29.002399444580078 c-5.693580150604248,13.010629653930664 -4.7993998527526855,24.28274917602539 15.394000053405762,24.28274917602539 a133.3748016357422,133.3748016357422 0 0 0 20.352710723876953,-1.9143799543380737 z" fill="#ffb703" id="svg_9" class="" fill-opacity="1"/><path d="M663.6502532958984,660.3860702514648 v6.070000171661377 a13.340120315551758,13.340120315551758 0 0 1 -0.9100000262260437,4.869999885559082 a13.687580108642578,13.687580108642578 0 0 1 -0.9700000286102295,2 a13.437479972839355,13.437479972839355 0 0 1 -11.550000190734863,6.559999942779541 h-446.54998779296875 a13.437399864196777,13.437399864196777 0 0 1 -11.550000190734863,-6.559999942779541 a13.682490348815918,13.682490348815918 0 0 1 -0.9700000286102295,-2 a13.340120315551758,13.340120315551758 0 0 1 -0.9100000262260437,-4.869999885559082 v-6.070000171661377 a13.426409721374512,13.426409721374512 0 0 1 13.430000305175781,-13.430000305175781 h25.739999771118164 v-2.8299999237060547 a0.5590800046920776,0.5590800046920776 0 0 1 0.5600000023841858,-0.5600000023841858 h13.430000305175781 a0.5590800046920776,0.5590800046920776 0 0 1 0.5600000023841858,0.5600000023841858 v2.8299999237060547 h8.389949798583984 v-2.8299999237060547 a0.5590800046920776,0.5590800046920776 0 0 1 0.5600000023841858,-0.5600000023841858 h13.430000305175781 a0.5590800046920776,0.5590800046920776 0 0 1 0.5600000023841858,0.5600000023841858 v2.8299999237060547 h8.399999618530273 v-2.8299999237060547 a0.5590800046920776,0.5590800046920776 0 0 1 0.5600000023841858,-0.5600000023841858 h13.430000305175781 a0.5590800046920776,0.5590800046920776 0 0 1 0.5600000023841858,0.5600000023841858 v2.8299999237060547 h8.390000343322754 v-2.8299999237060547 a0.5590800046920776,0.5590800046920776 0 0 1 0.5600000023841858,-0.5600000023841858 h13.430000305175781 a0.5590800046920776,0.5590800046920776 0 0 1 0.5600000023841858,0.5600000023841858 v2.8299999237060547 h8.390000343322754 v-2.8299999237060547 a0.5590800046920776,0.5590800046920776 0 0 1 0.5600000023841858,-0.5600000023841858 h13.430000305175781 a0.5590800046920776,0.5590800046920776 0 0 1 0.5600000023841858,0.5600000023841858 v2.8299999237060547 h8.399999618530273 v-2.8299999237060547 a0.5590800046920776,0.5590800046920776 0 0 1 0.5600000023841858,-0.5600000023841858 h13.430000305175781 a0.5590800046920776,0.5590800046920776 0 0 1 0.5600000023841858,0.5600000023841858 v2.8299999237060547 h8.390000343322754 v-2.8299999237060547 a0.5590800046920776,0.5590800046920776 0 0 1 0.5600000023841858,-0.5600000023841858 h105.19999694824219 a0.5590800046920776,0.5590800046920776 0 0 1 0.5600000023841858,0.5600000023841858 v2.8299999237060547 h8.399999618530273 v-2.8299999237060547 a0.5590800046920776,0.5590800046920776 0 0 1 0.5600000023841858,-0.5600000023841858 h13.430049896240234 a0.565559983253479,0.565559983253479 0 0 1 0.5600000023841858,0.5600000023841858 v2.8299999237060547 h8.390000343322754 v-2.8299999237060547 a0.5590800046920776,0.5590800046920776 0 0 1 0.5600000023841858,-0.5600000023841858 h13.430000305175781 a0.5590900182723999,0.5590900182723999 0 0 1 0.5600500106811523,0.5600000023841858 v2.8299999237060547 h8.390000343322754 v-2.8299999237060547 a0.5590800046920776,0.5590800046920776 0 0 1 0.5600000023841858,-0.5600000023841858 h13.430000305175781 a0.5590800046920776,0.5590800046920776 0 0 1 0.5600000023841858,0.5600000023841858 v2.8299999237060547 h8.399999618530273 v-2.8299999237060547 a0.5590800046920776,0.5590800046920776 0 0 1 0.5600000023841858,-0.5600000023841858 h13.430000305175781 a0.5569999814033508,0.5569999814033508 0 0 1 0.550000011920929,0.5600000023841858 v2.8299999237060547 h8.399999618530273 v-2.8299999237060547 a0.5590800046920776,0.5590800046920776 0 0 1 0.5600000023841858,-0.5600000023841858 h13.430000305175781 a0.5590800046920776,0.5590800046920776 0 0 1 0.5600000023841858,0.5600000023841858 v2.8299999237060547 h8.390000343322754 v-2.8299999237060547 a0.5590800046920776,0.5590800046920776 0 0 1 0.5600000023841858,-0.5600000023841858 h13.430000305175781 a0.5590800046920776,0.5590800046920776 0 0 1 0.5600000023841858,0.5600000023841858 v2.8299999237060547 h39.16999816894531 A13.426420211791992,13.426420211791992 0 0 1 663.6502532958984,660.3860702514648 z" fill="#3f3d56" id="svg_10"/><rect x="60.500240325927734" y="671.3260498046875" width="732.99951171875" height="2" fill="#3f3d56" id="svg_11"/><path d="M627.6945037841797,404.75658416748047 H461.25157165527344 v-3.430530071258545 H385.7799530029297 v3.430530071258545 h-167.12899780273438 a11.258609771728516,11.258609771728516 0 0 0 -11.258609771728516,11.258609771728516 V643.9267196655273 a11.25864028930664,11.25864028930664 0 0 0 11.258609771728516,11.258649826049805 H627.6945037841797 a11.25864028930664,11.25864028930664 0 0 0 11.258609771728516,-11.258649826049805 V416.0151596069336 A11.258600234985352,11.258600234985352 0 0 0 627.6945037841797,404.75658416748047 z" fill="#3f3d56" id="svg_12"/><circle cx="423.500244140625" cy="484.3260498046875" r="25" fill="none" stroke="#d0cde1" stroke-miterlimit="10" stroke-width="2" id="svg_13"/><circle cx="415.500244140625" cy="493.3260498046875" r="25" fill="#d0cde1" id="svg_14" class=""/><rect x="80.44606018066406" y="661.2225952148438" width="28" height="28" fill="#d0cde1" id="svg_15"/><path d="M91.44999694824219,639.2229843139648 v34 h34 v-34 zm32.52000045776367,32.52000045776367 h-31.049999237060547 v-31.040000915527344 h31.049999237060547 z" fill="#3f3d56" id="svg_16"/><rect x="728.446044921875" y="661.2225952148438" width="28" height="28" fill="#d0cde1" id="svg_17"/><path d="M739.4499969482422,639.2229843139648 v34 h34 v-34 zm32.52000045776367,32.52000045776367 h-31.049999237060547 v-31.040000915527344 h31.049999237060547 z" fill="#3f3d56" id="svg_18"/><circle cx="94.580078125" cy="150.77285766601562" r="79.3404312133789" fill="#000000" id="svg_19"/><path d="M122.22901916503906,56.48999786376953 a85.75482177734375,85.75482177734375 0 0 0 -21.6382999420166,0 A84.36846923828125,84.36846923828125 0 0 0 30.9755859375,115.20186614990234 a83.2228775024414,83.2228775024414 0 0 0 -3.654520034790039,21.6623592376709 c-0.035999998450279236,1.021780014038086 -0.06009000167250633,2.0556700229644775 -0.06009000167250633,3.089479923248291 a84.2331771850586,84.2331771850586 0 0 0 84.14894104003906,84.14894104003906 c1.791159987449646,0 3.582319974899292,-0.06009000167250633 5.349480152130127,-0.16832000017166138 a83.23069763183594,83.23069763183594 0 0 0 12.333840370178223,-1.7070000171661377 a84.15894317626953,84.15894317626953 0 0 0 -6.864170074462891,-165.73733520507812 zm15.519430160522461,160.85670471191406 h-0.012000000104308128 a80.90778350830078,80.90778350830078 0 0 1 -20.977140426635742,4.171339988708496 c-1.7671600580215454,0.12026000022888184 -3.5583200454711914,0.18035000562667847 -5.349480152130127,0.18035000562667847 a81.84488677978516,81.84488677978516 0 0 1 -81.74468231201172,-81.74468231201172 c0,-1.033810019493103 0.024059999734163284,-2.067699909210205 0.06009000167250633,-3.089479923248291 a81.85575866699219,81.85575866699219 0 0 1 81.6845932006836,-78.65519714355469 a81.74920654296875,81.74920654296875 0 0 1 26.338579177856445,159.13766479492188 z" fill="#3f3d56" id="svg_20"/><rect x="110.2077407836914" y="63.017539978027344" width="2.4042599201202393" height="16.829790115356445" fill="#3f3d56" id="svg_21"/><rect x="-0.247100830078125" y="327.17962646484375" width="2.4042599201202393" height="16.829790115356445" transform="rotate(-45, -262.689, 138.704)" fill="#3f3d56" id="svg_22"/><rect x="39.919036865234375" y="620.4562377929688" width="2.4042599201202393" height="16.829790115356445" transform="rotate(-90, -202.454, 383.529)" fill="#3f3d56" id="svg_23"/><rect x="304.08111572265625" y="867.9536743164062" width="2.4042599201202393" height="16.829790115356445" transform="rotate(-135, 41.6388, 582.574)" fill="#3f3d56" id="svg_24"/><rect x="634.93115234375" y="674.146240234375" width="2.4042599201202393" height="16.829790115356445" transform="rotate(-135, 275.585, 485.671)" fill="#3f3d56" id="svg_25"/><rect x="314.004150390625" y="757.4988403320312" width="2.4042599201202393" height="16.829790115356445" transform="rotate(-90, -65.4113, 520.571)" fill="#3f3d56" id="svg_26"/><rect x="56.517791748046875" y="520.987060546875" width="2.4042599201202393" height="16.829790115356445" transform="rotate(-45, -302.828, 235.608)" fill="#3f3d56" id="svg_27"/><rect x="110.2077407836914" y="200.0601043701172" width="2.4042599201202393" height="16.829790115356445" fill="#3f3d56" id="svg_28"/><path d="M115.01625061035156,135.14519500732422 a6.0106201171875,6.0106201171875 0 0 0 -7.212759971618652,0 a6.1872100830078125,6.1872100830078125 0 0 0 -1.718999981880188,2.0195701122283936 a6.011169910430908,6.011169910430908 0 1 0 8.93179988861084,-2.0195701122283936 zm-3.606379985809326,8.41489028930664 a3.617000102996826,3.617000102996826 0 0 1 -3.606379985809326,-3.606379985809326 a3.6712100505828857,3.6712100505828857 0 0 1 0.6371600031852722,-2.0436298847198486 a3.6028800010681152,3.6028800010681152 0 1 1 2.969219923019409,5.650000095367432 z" fill="#3f3d56" id="svg_29"/><rect x="100.5907211303711" y="35.36861038208008" width="21.6382999420166" height="21.6382999420166" fill="#3f3d56" id="svg_30"/><ellipse cx="111.40986633300781" cy="28.756900787353516" rx="28.85106086730957" ry="10.218090057373047" fill="#3f3d56" id="svg_31"/><rect x="107.80348205566406" y="94.27285766601562" width="7.212769985198975" height="40.87234115600586" fill="#3f3d56" id="svg_32"/><rect y="220.4400634765625" width="226" height="2.4042599201202393" fill="#3f3d56" id="svg_33"/><path d="M150.59364318847656,599.7540512084961 c0.9330800175666809,31.950000762939453 -17.735130310058594,43.65892028808594 -41.16320037841797,44.34312057495117 q-0.816290020942688,0.023830000311136246 -1.6252399682998657,0.02921999990940094 q-1.6296900510787964,0.012419999577105045 -3.2277400493621826,-0.05428000167012215 c-21.188339233398438,-0.879610002040863 -37.96015167236328,-12.126850128173828 -38.827911376953125,-41.840248107910156 c-0.8980000019073486,-30.749679565429688 37.26892852783203,-70.70291900634766 40.13249969482422,-73.65827178955078 l0.005109999794512987,-0.0027600000612437725 c0.10877999663352966,-0.11262000352144241 0.16448000073432922,-0.16899999976158142 0.16448000073432922,-0.16899999976158142 S149.66065979003906,567.8066635131836 150.59364318847656,599.7540512084961 z" fill="#d0cde1" id="svg_34"/><path d="M107.74372863769531,639.2550888061523 l14.882320404052734,-22.131500244140625 l-14.851880073547363,24.51243019104004 l0.03099999949336052,2.4903500080108643 q-1.6296900510787964,0.012419999577105045 -3.2277400493621826,-0.05428000167012215 L105.31559753417969,612.0602645874023 l-0.02022000029683113,-0.24699999392032623 l0.027230000123381615,-0.04771000146865845 l0.07064999639987946,-3.024930000305176 l-16.29789924621582,-23.662649154663086 l16.278669357299805,21.398670196533203 l0.05776999890804291,0.6393799781799316 l0.5575199723243713,-24.186180114746094 l-14.07699966430664,-24.53274917602539 l14.117079734802246,20.283939361572266 l-0.1473499983549118,-50.107521057128906 l0.00031999999191612005,-0.1667799949645996 l0.0047900001518428326,0.164000004529953 l0.9344599843025208,39.49147033691406 l12.829500198364258,-16.041460037231445 l-12.787500381469727,19.443559646606445 l0.2800000011920929,21.634000778198242 l11.805780410766602,-21.11393928527832 l-11.76239013671875,24.294509887695312 l0.1558700054883957,12.029569625854492 l17.168790817260742,-29.411460876464844 l-17.11659049987793,33.608070373535156 z" fill="#3f3d56" id="svg_35"/><path d="M798.5936737060547,599.7540512084961 c0.9330800175666809,31.950000762939453 -17.735130310058594,43.65892028808594 -41.16320037841797,44.34312057495117 q-0.8162800073623657,0.023830000311136246 -1.6252399682998657,0.02921999990940094 q-1.6296900510787964,0.012419999577105045 -3.2277400493621826,-0.05428000167012215 c-21.188339233398438,-0.879610002040863 -37.96015167236328,-12.126850128173828 -38.827911376953125,-41.840248107910156 c-0.8980000019073486,-30.749679565429688 37.26892852783203,-70.70291900634766 40.13249969482422,-73.65827178955078 l0.005109999794512987,-0.0027600000612437725 c0.10877999663352966,-0.11262000352144241 0.16448000073432922,-0.16899999976158142 0.16448000073432922,-0.16899999976158142 S797.6606292724609,567.8066635131836 798.5936737060547,599.7540512084961 z" fill="#d0cde1" id="svg_36"/><path d="M755.7436981201172,639.2550888061523 l14.882320404052734,-22.131500244140625 l-14.851880073547363,24.51243019104004 l0.03099999949336052,2.4903500080108643 q-1.6296900510787964,0.012419999577105045 -3.2277400493621826,-0.05428000167012215 L753.3155975341797,612.0602645874023 l-0.02022000029683113,-0.24699999392032623 l0.027230000123381615,-0.04771000146865845 l0.07064999639987946,-3.024930000305176 l-16.29789924621582,-23.662649154663086 l16.278669357299805,21.398670196533203 l0.05776999890804291,0.6393799781799316 l0.5575199723243713,-24.186180114746094 l-14.07699966430664,-24.53274917602539 l14.117079734802246,20.283939361572266 l-0.1473499983549118,-50.107521057128906 l0.00031999999191612005,-0.1667799949645996 l0.0047900001518428326,0.164000004529953 l0.9344599843025208,39.49147033691406 l12.829500198364258,-16.041460037231445 l-12.787500381469727,19.443559646606445 l0.2800000011920929,21.634000778198242 l11.805780410766602,-21.11393928527832 l-11.76239013671875,24.294509887695312 l0.1558700054883957,12.029569625854492 l17.168790817260742,-29.411460876464844 l-17.11659049987793,33.608070373535156 z" fill="#3f3d56" id="svg_37"/></g></svg>